<svg xmlns="http://www.w3.org/2000/svg" viewBox="0 0 200 220" width="200" height="220">
  <!-- 左耳 -->
  <ellipse cx="30" cy="85" rx="22" ry="26" fill="#6b4423"/>
  <ellipse cx="30" cy="85" rx="13" ry="16" fill="#f5e6d3"/>
  <!-- 右耳 -->
  <ellipse cx="170" cy="85" rx="22" ry="26" fill="#6b4423"/>
  <ellipse cx="170" cy="85" rx="13" ry="16" fill="#f5e6d3"/>
  <!-- 头部 -->
  <ellipse cx="100" cy="90" rx="78" ry="72" fill="#6b4423"/>
  <!-- 脸部白色区域 -->
  <ellipse cx="100" cy="108" rx="58" ry="52" fill="#ffffff"/>
  <!-- 头顶毛发 -->
  <path d="M 70 30 Q 80 10 95 28 Q 100 10 110 25 Q 125 12 135 30 Q 130 45 100 42 Q 75 45 70 30 Z" fill="#6b4423"/>
  <!-- 左眼 -->
  <ellipse cx="72" cy="105" rx="18" ry="20" fill="#2b2b2b"/>
  <circle cx="72" cy="105" r="10" fill="#ffffff"/>
  <circle cx="72" cy="105" r="6" fill="#1a1a1a"/>
  <circle cx="75" cy="102" r="2" fill="#ffffff"/>
  <!-- 右眼 -->
  <ellipse cx="128" cy="105" rx="18" ry="20" fill="#2b2b2b"/>
  <circle cx="128" cy="105" r="10" fill="#ffffff"/>
  <circle cx="128" cy="105" r="6" fill="#1a1a1a"/>
  <circle cx="131" cy="102" r="2" fill="#ffffff"/>
  <!-- 鼻子 -->
  <ellipse cx="100" cy="135" rx="10" ry="7" fill="#2b2b2b"/>
  <!-- 嘴巴 -->
  <path d="M 85 150 Q 100 165 115 150" stroke="#2b2b2b" stroke-width="4" fill="none" stroke-linecap="round"/>
  <!-- 腮红 -->
  <circle cx="58" cy="130" r="8" fill="#ffb3b3" opacity="0.6"/>
  <circle cx="142" cy="130" r="8" fill="#ffb3b3" opacity="0.6"/>
  <!-- 身体 -->
  <ellipse cx="100" cy="190" rx="60" ry="30" fill="#6b4423"/>
  <ellipse cx="100" cy="185" rx="38" ry="22" fill="#ffffff"/>
  <!-- 左脚 -->
  <ellipse cx="75" cy="208" rx="16" ry="11" fill="#6b4423"/>
  <circle cx="70" cy="207" r="2.5" fill="#ffffff"/>
  <circle cx="75" cy="206" r="2.5" fill="#ffffff"/>
  <circle cx="80" cy="207" r="2.5" fill="#ffffff"/>
  <!-- 右脚 -->
  <ellipse cx="125" cy="208" rx="16" ry="11" fill="#6b4423"/>
  <circle cx="120" cy="207" r="2.5" fill="#ffffff"/>
  <circle cx="125" cy="206" r="2.5" fill="#ffffff"/>
  <circle cx="130" cy="207" r="2.5" fill="#ffffff"/>
  <!-- 身体中的文字 -->
  <text x="100" y="192" text-anchor="middle" font-family="Microsoft YaHei, SimHei, sans-serif" font-size="22" font-weight="bold" fill="#1a7d1a" style="font-style:italic">喵喵</text>
</svg>
